<?xml version="1.0" encoding="utf-8"?>
<!-- Generator: Adobe Illustrator 20.0.0, SVG Export Plug-In . SVG Version: 6.00 Build 0)  -->
<svg version="1.1" id="Capa_1" xmlns="http://www.w3.org/2000/svg" xmlns:xlink="http://www.w3.org/1999/xlink" x="0px" y="0px"
	 viewBox="0 0 792 612" style="enable-background:new 0 0 792 612;" xml:space="preserve">
<style type="text/css">
	.st0{fill:#FDFDFD;}
	.st1{fill:#F8C4D0;}
	.st2{fill:#F58FAC;}
	.st3{fill:#F8C3D1;}
	.st4{fill:#F8C4D1;}
	.st5{fill:#F590AC;}
	.st6{fill:#F490AC;}
	.st7{fill:#FBFAFC;}
	.st8{fill:#F07C96;}
	.st9{fill:#F3A2B9;}
	.st10{fill:#D58CA2;}
</style>
<g>
	<g>
		<path class="st0" d="M877,247c0,6.7,0,13.3,0,20c-6.2,11.2-13.9,21.5-20.9,32.2c-8.7,13.4-18,26.4-26.5,39.9
			c-4,6.3-8.3,12.5-12.5,18.7c-0.9,1.3-2.4,2.4-2.1,4.4c1.7,1,3.6,0.5,5.4,0.5c16.7,0,33.3,0,50,0c2.3,0,4.7-0.4,6.7,1.3
			c0,4.3,0,8.7,0,13c-2,1.8-4.4,1.3-6.7,1.3c-16.7,0-33.3,0-50,0c-1.8,0-3.7-0.6-5.6,1c2.4,4.7,5.6,8.9,8.6,13.3
			c16.8,24.8,32.8,50.2,49.9,74.9c1.6,2.3,3,4.8,3.9,7.5c0,6.3,0,12.7,0,19c-2.6,0.4-3.4-1.8-4.4-3.3c-17-24.5-33.3-49.4-50.1-74
			c-6.4-9.3-12.8-18.7-19.3-27.9c-2.2-3.1-3.3-2.8-5.3,0.1c-10.4,14.9-20.2,30.1-30.2,45.3c-12.1,18.3-24.3,36.6-36.7,54.7
			c-1.3,1.9-4.2,4-2.6,6.4c1.5,2.2,4.6,1.2,7,0.8c2.3-0.4,4.6-0.4,7-0.4c32,0,64-0.3,95.9,0.1c12.3,0.1,24.6,1.5,36.9,0.4
			c0.7-0.1,1.3,0.4,1.8,0.8c0,4,0,8,0,12c-2.4,2-5.4,1.4-8.2,1.4c-45.1,0-90.2,0-135.2,0.1c-2.1,0-5-1-6.1,0.9
			c-1.3,2.2,1.3,4.2,2.6,6c12,17.8,23.7,35.8,35.7,53.5c1.6,2.4,4,4.6,3.2,8.1c-5,0-10,0-15,0c-5.2-5-9.1-11-12.9-17.1
			c-9.2-14.9-19.8-28.7-29-43.5c-0.5-0.8-1.1-1.7-1.7-2.5c-3.1-4.2-3.3-4.2-6,0.1c-12.5,19.2-25.6,38-38,57.3
			c-1.4,2.2-3,4.4-5.5,5.7c-195.3,0-390.7,0-586,0c-6.1-6.2-10.2-13.9-15.1-21.1c-18.5-27.1-36.8-54.3-55.4-81.4
			c-3.5-5.1-3.2-4.9-6.7,0.1c-14.4,21-28.1,42.5-42.5,63.5c-7.2,10.4-13.8,21.2-21,31.6c-1.7,2.5-3.3,5-5.4,7.2c-1.3,0-2.7,0-4,0
			c-8,0-8,0-8-8c6.2-11.2,14-21.4,21.2-32c14.6-21.7,29.5-43.2,44-64.9c0.7-1.1,1.9-2.2,1.4-3.6c-0.7-1.8-2.6-1.1-4-1.1
			c-18.7-0.1-37.3,0-56-0.1c-2.3,0-4.7,0.5-6.7-1.3c0-3.7,0-7.3,0-11c2-1.8,4.4-1.3,6.7-1.3c18.5,0,36.9,0,55.4,0
			c1.8,0,3.7,0.4,5.8-0.7c-1.8-4.7-5.1-8.5-7.8-12.5c-19-28.1-38.4-55.9-57.1-84.3c-1.1-1.7-1.9-3.5-3-5.2c0-104.7,0-209.3-0.1-314
			c0-3.4,0.7-4.1,4.1-4.1C143.3,35,365.7,35,588,35c2,1.1,3.1,2.9,4.3,4.8c8.1,12.8,17,25,25.1,37.9c4.6,7.4,4.8,7.2,9.6,0.2
			c9-13,17.6-26.2,26.5-39.3c1-1.4,2-2.7,3.5-3.5c5.7,0,11.3,0,17,0c1.3,2-0.1,3.5-1.1,5c-6.7,10-13.1,20.1-20.2,29.8
			c-4.7,6.4-7.9,13.7-13.7,20.8c50.4,0.1,99.4-0.1,149.2,0.1c-3.6-6.5-7.3-11.8-11-17.1C769.1,61.8,761,50,752.9,38.2
			c-0.7-1-1.4-1.9-0.9-3.2c5.3,0,10.7,0,16,0c7.9,10.3,14.8,21.3,21.8,32.1c2.3,3.6,5.1,7,7.2,10.7c1.9,3.3,3.1,2.2,4.8-0.3
			c8.6-13,17.7-25.7,26.4-38.6c1-1.5,2.1-3,3.7-3.9c6,0,12,0,18,0c0.8,2.4-0.6,4.2-1.8,5.9c-10.2,14.9-20.3,30-30,45.3
			c-0.7,1.2-2.5,2.3-1.5,3.8c0.8,1.1,2.5,0.6,3.8,0.6c16.6,0,33.2,0,49.9,0c2.3,0,4.7-0.4,6.7,1.4c0,4.3,0,8.7,0,13
			c-2,1.8-4.4,1.3-6.7,1.3c-16.5,0-32.9,0-49.4,0c-1.5,0-3.5-0.7-4.2,0.6c-1,1.7,0.9,3,1.8,4.3c17.9,27.2,36,54.4,54.2,81.4
			c1.8,2.6,3.5,5.3,4.4,8.3c0,9.3,0,18.7,0,28c-2.7,0.5-3.9-1.6-5-3.3c-12-18-24.3-35.8-36.5-53.7c-10.9-15.9-21.7-31.9-32.5-47.9
			c-2-3-3.4-2.1-5.1,0.5c-10.1,15.2-20.3,30.4-30.5,45.7c-11.8,17.7-23.7,35.4-35.4,53.2c-1.5,2.3-4.5,4.9-3.4,7.3
			c1.1,2.3,4.8,0.8,7.4,0.9c45.1,2,90.2,0.6,135.3,1c2,0,4-0.2,5.7,1.3c0,3.7,0,7.3,0,11c-8.1,0.5-16.2,1.2-24.2,1.3
			c-39.5,0.2-79,0.1-118.5,0.1c-1.2,0-2.3,0-3.5,0c-4.5,0.2-4.9,0.8-2.5,4.5c5,7.7,10.1,15.3,15.2,22.9c17,25.5,34.1,50.9,51.1,76.5
			c4.9,7.4,5.2,7.4,10.1,0c12.6-19.2,25.8-38.1,38.7-57.1c9.7-14.3,19.2-28.8,29.3-42.9C873.6,248.6,874.4,246.5,877,247z"/>
		<path class="st1" d="M877,234c-35,0-69.9,0-104.9-0.1c-14.5-0.1-28.9-0.6-43.4-0.8c-3.9,0-3.8-1.1-1.9-3.9
			c10.9-16.3,21.8-32.7,32.6-49.2c9.2-13.9,18.4-27.9,27.5-41.9c3.6-5.5,7.8-10.6,11-16.4c1.8-3.4,4.1-2.1,5.5,0.4
			c2.5,4.5,5.8,8.5,8.7,12.7c13.8,20.5,27.1,41.4,41.4,61.6c6.7,9.5,12.6,19.5,19.6,28.7c1.1,1.5,2.2,2.9,3.9,3.8
			C877,230.7,877,232.3,877,234z"/>
		<path class="st2" d="M877,247c-4.3,3.9-7.1,9.1-10.3,13.8c-17.5,25.4-34.8,51-52.2,76.5c-4.3,6.3-8.5,12.7-12.7,19.1
			c-1.6,2.4-2.7,3.3-4.8,0.1c-18.2-27.5-36.7-54.9-55.1-82.3c-5.2-7.7-10.3-15.5-15.3-23.3c-1-1.6-3-3.4-2-5.3
			c0.9-1.6,3.4-0.8,5.1-0.8c40.8,0,81.6,0,122.5-0.1c5.6,0,11.3-0.4,16.9-0.7c2.7-0.1,5.3,0.1,7.9,0.9C877,245.7,877,246.3,877,247z
			"/>
		<path class="st3" d="M877,497c-10.7,1.5-21.5,1.4-32.3,0.2c-1.3-0.2-2.7-0.1-4-0.1c-33.5,0-66.9,0.1-100.4-0.1
			c-4,0-7.7,1.7-11.8,0.5c-3.4-0.9-3.7-1.9-1.9-4.5c6.5-9.4,12.9-18.8,19.2-28.4c14.1-21.3,28-42.6,42.1-63.9
			c3.4-5.1,7.4-9.8,10.3-15.2c1.3-2.3,2.7-2.7,4.4-0.2c10.1,14.9,20.2,29.7,30.3,44.6c8.9,13.1,17.8,26.2,26.7,39.3
			c5.2,7.7,10.3,15.4,15.5,23.1c0.4,0.7,1.2,1.1,1.8,1.7C877,495,877,496,877,497z"/>
		<path class="st2" d="M-71,579c1.7-5.3,5.5-9.4,8.5-13.9c14.1-21.3,28.4-42.5,42.6-63.8c6.2-9.4,12.5-18.7,18.4-28.2
			c2.7-4.3,4-1.9,5.7,0.6c12.7,18.9,25.3,37.8,38.1,56.6c10.5,15.5,21.2,30.9,31.8,46.4c0.4,0.7,0.6,1.5,0.9,2.2
			C26.3,579-22.3,579-71,579z"/>
		<path class="st2" d="M769,579c-8.7-13.2-17.3-26.4-26-39.6c-5.9-8.9-11.8-17.7-17.6-26.6c-1.8-2.7-1.6-4,2.2-4
			c49.8,0.1,99.6,0.1,149.4,0.2c0,0.7,0,1.3,0,2c-2.5,6.5-7.3,11.4-11.1,17.1c-11.1,16.7-22.5,33.3-33.9,49.9
			c-0.3,0.4-0.7,0.7-1,1.1C810.3,579,789.7,579,769,579z"/>
		<path class="st4" d="M752,35c13.3,18.5,26.2,37.2,39,57.2c-51.7,0-102.4,0-154.4,0c5.6-8.6,10.5-16.1,15.4-23.7
			c7.2-11.2,15.6-21.7,22-33.5C700,35,726,35,752,35z"/>
		<path class="st2" d="M-83,353c6.1,5.5,9.5,13.1,14.2,19.7c8.1,11.3,15.8,23,23.6,34.5c10.6,15.6,21.1,31.3,31.8,46.9
			c2.4,3.4-0.1,3.1-2.2,3.1c-22.5,0-44.9-0.1-67.4-0.1C-83,422.3-83,387.7-83,353z"/>
		<path class="st4" d="M-83,468c21.5,0,42.9,0,64.4,0.1c5.9,0,6.2,0.3,3,5.2c-9.1,13.8-18.4,27.5-27.7,41.2
			c-10.6,15.7-21.1,31.5-32,46.9c-2.3,3.3-3.9,7.4-7.6,9.7C-83,536.7-83,502.3-83,468z"/>
		<path class="st5" d="M877,475c-9.9-13.3-18.7-27.4-28-41.2c-11.6-17.2-23-34.6-34.5-51.8c-0.9-1.4-2.4-2.9-1.6-4.4
			c0.7-1.4,2.7-0.6,4.1-0.6c20,0,40,0,60,0.1C877,409.7,877,442.3,877,475z"/>
		<path class="st1" d="M661,579c7.9-11.1,15.6-22.3,22.8-33.8c6.9-11,15.3-21.1,21.4-32.6c1.3-2.5,2.2-2.9,4-0.3
			c5.6,8.2,11.4,16.3,17,24.5c8.5,12.6,16.4,25.7,25.6,37.8c0.9,1.3,2.3,2.5,2.3,4.3C723,579,692,579,661,579z"/>
		<path class="st1" d="M877,364c-20.1,0-40.3,0-60.4,0c-1.3,0-3,0.7-3.7-0.6c-0.7-1.3,0.3-2.8,1.2-4.1
			c10.5-15.6,20.8-31.3,31.3-46.9c9.5-14.1,19-28.2,28.5-42.3c0.8-1.3,1.7-2.5,3.1-3.1C877,299.3,877,331.7,877,364z"/>
		<path class="st5" d="M877,201c-8.6-10.9-15.7-22.9-23.5-34.4c-13-19.2-25.6-38.6-38.4-58c-0.6-0.9-2-1.6-1.5-2.9
			c0.6-1.4,2-0.8,3.1-0.8c20.1,0,40.2,0.1,60.3,0.1C877,137,877,169,877,201z"/>
		<path class="st1" d="M877,92c-19.8,0-39.6,0-59.4,0c-1.4,0-3.3,0.8-4-0.9c-0.6-1.4,1.2-2.2,1.9-3.2c9.4-14.4,18.8-28.9,28.3-43.3
			c2.1-3.2,4.9-5.8,6.2-9.5c8,0,16,0.1,24-0.1c2.5-0.1,3.1,0.6,3.1,3.1C876.9,56,877,74,877,92z"/>
		<path class="st5" d="M657,35c-3.3,7.2-8.6,13-12.7,19.6c-6.2,10-13.4,19.4-20,29.1c-1.7,2.5-2.6,2.3-4.2-0.1
			C609.5,67.4,598.7,51.2,588,35C611,35,634,35,657,35z"/>
		<path class="st6" d="M832,35c-8.8,13-17.7,26.1-26.5,39.1c-1.6,2.3-3.1,4.7-4.6,7.1c-1,1.6-2.1,1.5-3.1,0.1
			C788,66,777.3,51.2,768,35.5c-0.1-0.1,0-0.3,0-0.5C789.3,35,810.7,35,832,35z"/>
		<path class="st7" d="M831,579c1.6-6.5,6.6-11,10.1-16.3c10.7-16.3,22-32.3,33-48.3c0.8-1.2,1.3-2.7,2.9-3.3c0,7.3,0,14.7,0,22
			c-8.9,14.4-18.7,28.2-27.9,42.5c-1,1.6-2.6,2.5-4.1,3.5C840.3,579,835.7,579,831,579z"/>
		<path class="st1" d="M845,579c8.7-13.1,17.4-26.2,26.2-39.3c1.6-2.5,2.9-5.3,5.8-6.7c0,14.5-0.1,29,0.1,43.5
			c0,2.1-0.4,2.6-2.6,2.6C864.7,578.9,854.8,579,845,579z"/>
		<path class="st8" d="M405.1,129.2c-4.3,6.4-3.2,13.8-3.9,20.8c-2.1,22.8-9,44-21.5,63.1c-9.5,14.6-22.4,25.9-37.9,33.9
			c-14.1,7.2-27.8,15-40.3,24.7c-17.6,13.6-28.2,31-29.6,53.6c-0.3,5.6-0.8,11.2-0.7,18c-8-9.7-13.4-19.5-18-29.7
			c-9.9-22.1-13.7-45.5-12.1-69.6c1.8-27.5,10.7-52.6,26.6-75.1c16.4-23.3,37.9-40.3,64.1-51.3c13.9-5.8,28.3-9.3,43.4-10.8
			c10-0.9,19.9-0.9,29.8,0.3c3.3,0.6,4.2,2.9,3.7,5.9c-0.4,3.1-0.5,6.3-0.1,9.4C409.1,125.5,408.1,127.9,405.1,129.2z"/>
		<path class="st8" d="M535.1,273.1c-1.4,12.3-4.6,24-9.2,35.6c-7.6,19.3-18.9,36.1-33.6,50.6c-18.9,18.6-41.3,31.1-66.9,37.8
			c-22.1,5.7-44.4,5-66.8,1.8c-6.3-0.9-9.9-5.9-13.8-10.1C334,377,333.4,357,338.7,345c4.5-10.3,13.8-14.6,24.3-15.8
			c11.4-1.4,22.8-0.5,34.1,2.2c6.5,1.5,13,1.8,19.8,1.1c13.8-1.5,16.3-11.9,13.1-23.1c-1-3.5-2.9-6.7-4.3-10c-1.6-3.7-1.5-6.8,3-8.4
			c4.1-0.9,7.3-3.1,9.8-6.3c1.4-1.8,2.2-3.9,0.7-5.9c-1.6-2.2-0.8-3.6,0.9-5.1c3-2.6,6.1-5.2,1.2-8.9c-1.1-0.8-0.6-2.1,0.5-3
			c3.1-1.6,6.5-1.3,9.8-1.3c25.1-0.1,50.1,0,75.2,0c8.8,0,8.8,0,8.7,8.8C535.5,270.5,535.7,271.8,535.1,273.1z"/>
		<path class="st9" d="M535.1,273.1c-0.4-11.1-0.4-11.1-11.4-11.1c-24.3,0-48.6,0-72.9,0c-3.3,0-6.6-0.1-9.8,1
			c-0.9,0.7-2.1,0.6-3.1,1.1c-3.5-9.9-2.2-13.4,6.9-18c9.5-4.8,9.9-8.8,2.4-16.5c-12.3-12.6-21.3-27.1-24.6-44.6
			c-1-5.4-0.6-10.9-0.6-16.4c0-12.2-2.3-23.7-9.6-33.9c-1.9-2.7-4-4.8-7.3-5.5c1.8-2.2,2.8-4.4,2.1-7.6c-0.6-2.7-0.6-5.6,0.2-8.3
			c0.8-2.7,0-4.8-2.5-6.2c13.7-1,26.1,3.8,38.5,8.6c30.1,11.7,53.6,31.7,70.6,58.9c13.5,21.5,21.2,45.1,22.2,70.9
			c0.3,7.7-0.2,15.2-0.3,22.8C536,270,536.4,271.7,535.1,273.1z"/>
		<path class="st5" d="M694.1,104.8c16.5,0,33,0.4,49.4-0.1c13.8-0.5,27.6-0.4,41.4-0.5c1.6,0,3.7-0.8,4.6,0.9
			c1.1,1.9-0.7,3.5-1.7,4.9c-14,20.6-28,41.1-42,61.7c-10,14.7-19.9,29.4-29.8,44.1c-2.7,4-3.5,4-6.1,0
			c-19.4-29.3-38.9-58.6-58.3-87.8c-4.2-6.4-8.4-12.8-12.6-19.2c-0.6-0.9-2-1.7-1.5-2.9c0.7-1.6,2.4-0.9,3.6-0.9
			C658.8,104.9,676.5,104.9,694.1,104.8C694.1,104.9,694.1,104.8,694.1,104.8z"/>
		<path class="st10" d="M437.9,264.1c0.3-2.5,1.6-1.9,3.1-1.1c5.6,5,5.6,5.1,0.1,10.9c-1.5,1.5-2.1,2.4-0.7,4.9
			c2.9,5.4-4,12.4-11.7,12.2c2.6-2,5.5-3.8,7.8-6.1c2.2-2.1,4.2-4.8-0.1-7.2c-2-1.1-1.6-2.2,0.4-3c0.3-0.1,0.6-0.3,0.8-0.5
			C444.7,269.7,444.8,268.9,437.9,264.1z"/>
	</g>
</g>
</svg>
