<svg id="Capa_1" data-name="Capa 1" xmlns="http://www.w3.org/2000/svg" viewBox="0 0 490.05 488.84"><defs><style>.cls-1{fill:#fee9a4;}.cls-2{fill:#fefefe;}.cls-3{fill:#1b95fd;}.cls-4{fill:#1bfea1;}.cls-5{fill:#f68f4e;}.cls-6{fill:#7b7b79;}.cls-7{fill:#7b7a79;}.cls-8{fill:#7a7978;}.cls-9{fill:#797978;}.cls-10{fill:#83817b;}.cls-11{fill:#817f7a;}.cls-12{fill:#7e7d7a;}.cls-13{fill:#81807b;}.cls-14{fill:#7d7c79;}.cls-15{fill:#88857d;}.cls-16{fill:#fce7a4;}.cls-17{fill:#f8e3a2;}.cls-18{fill:#ddcd99;}</style></defs><title>logo_DAW</title><path class="cls-1" d="M134.44,548.44q0-240.4-.14-480.8c0-5.18,1.06-6.25,6.24-6.24q240.4.26,480.8.14c2,2.5,1.41,5.48,1.41,8.3q0,235.44,0,470.89c0,8.39-.06,8.42-8.24,8.42q-236.52,0-473,0C139.13,549.11,136.68,549.72,134.44,548.44Z" transform="translate(-134.3 -61.39)"/><path class="cls-2" d="M134.44,548.44l472.46-.07a38.92,38.92,0,0,1,5.74,0c6.92,1,8.79-1.77,8.78-8.67q-.28-235.15-.14-470.3c0-2.63,0-5.26.07-7.9.89.5,2.49-1,2.81.73a28.71,28.71,0,0,1,.06,5q0,238.42.14,476.85c0,4.92-1,5.89-5.88,5.88q-239.14-.25-478.28-.22C138.32,549.79,135.73,551.41,134.44,548.44Z" transform="translate(-134.3 -61.39)"/><path class="cls-3" d="M604,514H151.81l143.47-248.5,82.61,142.95,82.6-143Z" transform="translate(-134.3 -61.39)"/><path class="cls-4" d="M421.51,265.24h17.55L377.6,371.73,316.07,265.25h18c2.65-2.53,6-2.67,9.35-2.67,22.63,0,45.26,0,67.89,0A18.3,18.3,0,0,1,421.51,265.24Z" transform="translate(-134.3 -61.39)"/><path class="cls-5" d="M421.51,265.24H334.09c1-22.7,17-40.2,38.9-42.71,20.26-2.32,40.25,10.91,46.24,30.81C420.39,257.19,420.77,261.27,421.51,265.24Z" transform="translate(-134.3 -61.39)"/><path class="cls-6" d="M314.19,165.38c4.06-10.77,7.53-20,11.05-29.27.63-1.65.72-4.36,3.37-3.6,1.91.55,1.11,2.86,1.12,4.4.06,11,.09,22,0,33,0,1.84,1.08,5-2.45,4.76-2.78-.16-1.94-2.86-2-4.57-.11-5.85,0-11.7-1.3-17.81-2.37,6.36-4.75,12.71-7.08,19.09-.5,1.36-.82,3-2.39,3.28-2.28.34-2.49-1.9-3-3.32-2.27-5.91-4.4-11.87-7.84-17.61,0,5.62,0,11.24,0,16.85,0,1.81.39,4.21-2.49,4.22s-2.51-2.39-2.52-4.2q-.08-17.21,0-34.42c0-1.48-.64-3.73,1.89-3.86,1.84-.09,1.93,1.82,2.41,3.09C306.51,144.91,310.07,154.43,314.19,165.38Z" transform="translate(-134.3 -61.39)"/><path class="cls-7" d="M338.5,153.45c0-2.87-.19-5.75,0-8.6.34-4.19-2.15-10.17,1.32-12.17,4.51-2.59,10.81-1.54,16.13-.43s7.14,5.65,7.18,11c0,6.12.34,12.29-7.09,14.66a15.9,15.9,0,0,1-6.32.89c-5.45-.59-7.13,1.6-6.9,6.92.13,2.94,2,8.55-1.78,8.57-4.93,0-2-5.59-2.46-8.65C338.1,161.63,338.5,157.51,338.5,153.45Z" transform="translate(-134.3 -61.39)"/><path class="cls-8" d="M450.41,152.89q0-1.79,0-3.58c0-19.08,1.49-20.31,20.95-17.5,1.37.2,3.08-.06,3.24,1.92.2,2.54-1.78,2.38-3.43,2.42a53.58,53.58,0,0,1-8.59,0c-6.35-.91-8.07,1.54-8,7.86,0,6,2.27,7.24,7.54,7,2.76-.12,8-1.76,7.95,1.83,0,4.38-5.33,2.51-8.1,2.3-6.49-.49-7.2,2.64-7.34,8.09-.15,5.92,1.53,8.33,7.58,7.54a62.58,62.58,0,0,1,9.31,0c1.41,0,3,0,3.14,2s-1.43,2.23-2.89,2.24c-6,0-11.94,0-17.91,0-3.07,0-3.44-1.79-3.42-4.19C450.44,164.84,450.42,158.87,450.41,152.89Z" transform="translate(-134.3 -61.39)"/><path class="cls-9" d="M267.8,153.2c0-5.5.15-11-.06-16.5-.14-3.74,1.28-5.13,5-5,5,.22,10,0,15.06.11,1.68,0,4.44-.78,4.25,2.25-.17,2.77-2.79,2-4.54,2a42.57,42.57,0,0,1-7.88,0c-6.12-.87-7.61,1.72-7.54,7.57.07,5.52,1.43,8.08,7.21,7.19a18.62,18.62,0,0,1,4.3,0c1.76.14,4.32-.55,4.19,2.41-.11,2.41-2.38,1.77-3.92,2a20.31,20.31,0,0,1-2.15,0c-9.23.17-11.6,3.52-9.43,12.67.63,2.67,2.24,2.69,4.19,2.7,4.3,0,8.61,0,12.91.09,1.5,0,2.93.36,2.72,2.38-.16,1.55-1.38,1.82-2.58,1.83-6.22,0-12.43,0-18.65,0-3.19,0-3.08-2.34-3.09-4.53C267.79,164.68,267.8,158.94,267.8,153.2Z" transform="translate(-134.3 -61.39)"/><path class="cls-8" d="M394.15,174.89c-2.74,0-2.49-1.49-1.93-3.37q5.41-18.18,10.68-36.4c.41-1.41.64-3,2.46-3s1.93,1.81,2.32,3.11c3.33,11.21,6.7,22.4,9.88,33.65.53,1.89,3.25,4.78-.66,5.8-2.84.74-3.34-2.37-3.64-4.31-.7-4.53-3.21-5.49-7.46-5.58-4.74-.1-7.87.78-8.46,6.06C397.12,172.77,396.57,174.71,394.15,174.89Z" transform="translate(-134.3 -61.39)"/><path class="cls-10" d="M368.88,153.26c0-5.73,0-11.45,0-17.18,0-1.86-.16-4.19,2.68-4.08s2.46,2.45,2.47,4.28c0,9.07.31,18.15-.08,27.2-.24,5.49,1.28,7.73,7.13,7.33,2.83-.19,8.31-2.22,8.4,1.93s-5.3,2.14-8.18,2.2c-12.46.28-12.46.13-12.47-12.37Q368.88,157.91,368.88,153.26Z" transform="translate(-134.3 -61.39)"/><path class="cls-9" d="M430.31,155.39c0-3.58-.14-7.17,0-10.75.24-5.09.43-9.87-7.08-8.56-1.46.26-2.91-.34-2.74-2.34.13-1.54,1.33-1.86,2.54-1.87q9.31-.07,18.63,0c1.48,0,3,.3,2.79,2.32s-1.83,2.15-3.19,1.92c-6.46-1.08-6.78,2.71-6.65,7.6.24,9.07.09,18.15,0,27.23,0,1.55.4,3.68-2.06,3.81s-2.23-2-2.25-3.59C430.27,165.9,430.32,160.64,430.31,155.39Z" transform="translate(-134.3 -61.39)"/><path class="cls-7" d="M247.69,155c0-3.58-.21-7.18,0-10.74.36-5.09,0-9.22-6.87-8.13-1.44.23-3-.24-2.93-2.19s1.67-2.08,3.1-2.09q9-.05,17.91,0c1.41,0,3.07.08,3.06,2.08s-1.55,2.42-3,2.18c-6.88-1.12-7,3-6.87,8.07.27,8.83.11,17.67,0,26.5,0,1.74.53,4.28-2.53,4-2.41-.22-1.88-2.41-1.91-3.95C247.64,165.48,247.69,160.23,247.69,155Z" transform="translate(-134.3 -61.39)"/><path class="cls-11" d="M532.62,203c-2.4-3.14-1.42-6.53-1.71-9.8-.17-2-.19-4.08-2.92-4-2.57.12-2.7,2.16-2.91,4.13-.35,3.2.82,6.57-1.34,10.46-2.4-3.68-1.11-7.23-1.47-10.48-.22-2-.26-4-2.87-4.12s-2.75,2-2.91,4c-.27,3.29.65,6.67-1.52,9.93a27.71,27.71,0,0,1-.7-15.65c.32-1.48,15.47-2.35,17.09-.69C536.22,191.77,533.13,197.57,532.62,203Z" transform="translate(-134.3 -61.39)"/><path class="cls-12" d="M454.22,185.88c-1.9.52-2.14-.9-2.88-1.74-2.07-2.38-4.61-3-6.58-.25s.48,4.27,2.6,5.47c1.24.7,2.65,1.1,3.89,1.79,3.47,1.94,4.29,5.15,3.25,8.61-1.19,3.94-4.59,4.35-8.16,4-4.1-.35-5.45-2.8-5.8-6.28,2.78-1.28,2.79,1,3.68,1.77,2.33,2.17,5,2.53,6.8,0,2.13-2.94-.12-4.76-2.73-6a34.56,34.56,0,0,1-4.47-2.21c-3-2-3.67-4.82-2.38-8.14,1.59-4.06,5.08-4.08,8.4-3.49S455.23,182.14,454.22,185.88Z" transform="translate(-134.3 -61.39)"/><path class="cls-11" d="M471.34,198.84c1.49-.89,2.21-.36,2.85.39,1.65,2,4.29,2.71,5.41.63,1.62-3-1.87-3-3.6-3.75-2.93-1.26-4.8-3.08-4.06-6.56.64-3,3-3.45,5.45-3.44,3.44,0,5.83,1.18,5.7,5.62-1.14-.36-1.93-.38-2.34-.79-1.6-1.59-3.8-3.52-5.26-1-1.66,2.82,1.69,3.13,3.52,3.9,2.86,1.21,5.08,2.92,4.26,6.43-.75,3.2-3.33,3.63-6.13,3.63C473.53,203.88,471.5,202.42,471.34,198.84Z" transform="translate(-134.3 -61.39)"/><path class="cls-13" d="M549.32,192.08a13.13,13.13,0,0,1-2.64-1.27c-1.63-1.54-3.68-3.41-5.22-.73-1.37,2.39,1.45,2.92,3.14,3.57,2.82,1.09,5.28,2.49,4.83,6.09-.36,2.86-2.34,3.94-5,4.09-3.59.2-6.61-.41-7-4.65.94-1.31,1.85-1,2.53-.29,1.82,2,4.52,3.38,5.88.8,1.46-2.77-2.15-2.87-3.9-3.66-2.62-1.18-4.38-2.79-4-6,.39-3,2.46-3.86,5-3.94C546.3,186,549,186.81,549.32,192.08Z" transform="translate(-134.3 -61.39)"/><path class="cls-10" d="M463.18,196.25l4.08-9.56,1.67.64c-1.27,8.15-5,15.48-9,23.05,3.39-8.53-1.43-15.75-4-24.33C461.48,188.21,460.4,193,463.18,196.25Z" transform="translate(-134.3 -61.39)"/><path class="cls-14" d="M509.26,198.52c.43,4.09-1.61,5.26-5,5.32-3.66.06-6.29-1.54-6.21-5.27.09-4.2-2.28-9.53,3.36-12,2.6-1.13,6.07-1.23,7.47,2,1,2.32,2.4,5.73-2.24,6.64-1.94.38-4.53-.93-5.61,1.82a2.74,2.74,0,0,0,1.05,3.16C504.94,202.49,506.56,198.82,509.26,198.52Z" transform="translate(-134.3 -61.39)"/><path class="cls-15" d="M495.83,202.45c-4.44,2.05-7.13.34-7-1.81.31-6-5.11-12.26.56-18.37,1.91,3.07,6.58,4.44,1.84,9.42C489,194,490,199.92,495.83,202.45Z" transform="translate(-134.3 -61.39)"/><path class="cls-16" d="M343,144.75c0-4.37-1.46-9.37,6.3-8.7,7.37.64,9.38,2.11,9.28,9.43-.1,6.8-2.57,8.76-10.87,8.6C343,154,343,154,343,144.75Z" transform="translate(-134.3 -61.39)"/><path class="cls-17" d="M405.32,143c1.58,5.43,2.76,9,3.59,12.62.35,1.54,2.56,3.84-.32,4.72a11.56,11.56,0,0,1-6.92-.2c-2.08-.76-.36-2.91,0-4.29C402.47,152.18,403.67,148.61,405.32,143Z" transform="translate(-134.3 -61.39)"/><path class="cls-18" d="M503.92,188.49c1.77.33,3.18,1.29,3.28,3.12.11,2-1.66,1.92-3,1.92-1.68,0-3.52-.15-3.24-2.55C501.14,189.38,502.42,188.72,503.92,188.49Z" transform="translate(-134.3 -61.39)"/></svg>